<mxfile host="Electron" agent="Mozilla/5.0 (Windows NT 10.0; Win64; x64) AppleWebKit/537.36 (KHTML, like Gecko) draw.io/26.1.1 Chrome/132.0.6834.210 Electron/34.3.3 Safari/537.36" version="26.1.1">
  <diagram name="第 1 页" id="GL3BL544SjVAO1XGgeyc">
    <mxGraphModel dx="1221" dy="717" grid="1" gridSize="10" guides="1" tooltips="1" connect="1" arrows="1" fold="1" page="1" pageScale="1" pageWidth="1169" pageHeight="827" math="0" shadow="0">
      <root>
        <mxCell id="0" />
        <mxCell id="1" parent="0" />
        <mxCell id="VLqlRhgixVueoV2IxVpe-1" value="" style="ellipse;whiteSpace=wrap;html=1;aspect=fixed;dashed=1;" parent="1" vertex="1">
          <mxGeometry x="394" y="240" width="230" height="230" as="geometry" />
        </mxCell>
        <mxCell id="PgBbjDfo2BCgbaOhngJ4-4" value="agent" style="text;html=1;align=center;verticalAlign=middle;resizable=0;points=[];autosize=1;strokeColor=none;fillColor=none;" parent="1" vertex="1">
          <mxGeometry x="340" y="350" width="50" height="30" as="geometry" />
        </mxCell>
        <mxCell id="PgBbjDfo2BCgbaOhngJ4-5" value="task" style="text;html=1;align=center;verticalAlign=middle;resizable=0;points=[];autosize=1;strokeColor=none;fillColor=none;" parent="1" vertex="1">
          <mxGeometry x="494.5" y="340" width="50" height="30" as="geometry" />
        </mxCell>
        <mxCell id="PgBbjDfo2BCgbaOhngJ4-9" value="other agent" style="text;html=1;align=center;verticalAlign=middle;resizable=0;points=[];autosize=1;strokeColor=none;fillColor=none;" parent="1" vertex="1">
          <mxGeometry x="469" y="270" width="80" height="30" as="geometry" />
        </mxCell>
        <mxCell id="PgBbjDfo2BCgbaOhngJ4-13" value="vector at" style="text;html=1;align=center;verticalAlign=middle;resizable=0;points=[];autosize=1;strokeColor=none;fillColor=none;" parent="1" vertex="1">
          <mxGeometry x="419.5" y="360" width="70" height="30" as="geometry" />
        </mxCell>
        <mxCell id="VLqlRhgixVueoV2IxVpe-6" value="" style="endArrow=classic;html=1;rounded=0;" parent="1" edge="1">
          <mxGeometry width="50" height="50" relative="1" as="geometry">
            <mxPoint x="394.5" y="360" as="sourcePoint" />
            <mxPoint x="504.5" y="360" as="targetPoint" />
          </mxGeometry>
        </mxCell>
        <mxCell id="5mTq1H1Q6pEFKlmf96wv-1" value="" style="ellipse;whiteSpace=wrap;html=1;aspect=fixed;" parent="1" vertex="1">
          <mxGeometry x="479.5" y="300" width="10" height="10" as="geometry" />
        </mxCell>
        <mxCell id="5mTq1H1Q6pEFKlmf96wv-2" value="" style="ellipse;whiteSpace=wrap;html=1;aspect=fixed;" parent="1" vertex="1">
          <mxGeometry x="564.5" y="330" width="10" height="10" as="geometry" />
        </mxCell>
        <mxCell id="5mTq1H1Q6pEFKlmf96wv-4" value="" style="ellipse;whiteSpace=wrap;html=1;aspect=fixed;" parent="1" vertex="1">
          <mxGeometry x="549" y="410" width="10" height="10" as="geometry" />
        </mxCell>
        <mxCell id="5mTq1H1Q6pEFKlmf96wv-5" value="" style="ellipse;whiteSpace=wrap;html=1;aspect=fixed;" parent="1" vertex="1">
          <mxGeometry x="390" y="250" width="10" height="10" as="geometry" />
        </mxCell>
        <mxCell id="5mTq1H1Q6pEFKlmf96wv-6" value="" style="ellipse;whiteSpace=wrap;html=1;aspect=fixed;" parent="1" vertex="1">
          <mxGeometry x="620" y="270" width="10" height="10" as="geometry" />
        </mxCell>
        <mxCell id="CbR6fKQbuWN52_2fTlZ2-2" value="" style="ellipse;whiteSpace=wrap;html=1;aspect=fixed;" vertex="1" parent="1">
          <mxGeometry x="430" y="520" width="10" height="10" as="geometry" />
        </mxCell>
        <mxCell id="CbR6fKQbuWN52_2fTlZ2-3" value="" style="ellipse;whiteSpace=wrap;html=1;aspect=fixed;" vertex="1" parent="1">
          <mxGeometry x="590" y="480" width="10" height="10" as="geometry" />
        </mxCell>
      </root>
    </mxGraphModel>
  </diagram>
</mxfile>
